<?xml version="1.0" standalone="no"?><!DOCTYPE svg PUBLIC "-//W3C//DTD SVG 1.1//EN" "http://www.w3.org/Graphics/SVG/1.1/DTD/svg11.dtd"><svg t="1560876085961" class="icon" style="" viewBox="0 0 1024 1024" version="1.1" xmlns="http://www.w3.org/2000/svg" p-id="2148" xmlns:xlink="http://www.w3.org/1999/xlink" width="200" height="200"><defs><style type="text/css"></style></defs><path d="M709.6064 560.128c-10.4448-3.456-39.3216-13.0816-55.6288-62.1568 56.2432-55.5264 87.0144-146.0736 87.0144-260.7872 0-126.2592-102.7328-229.0176-229.0176-229.0176s-229.0176 102.7328-229.0176 229.0176c0 115.072 30.9504 205.8496 86.9632 260.9408-16.3072 48.9216-45.1584 58.5728-55.6544 62.0544-137.1392 45.696-260.2752 100.9408-260.2752 272.4352 0 170.0096 350.592 183.2192 458.0096 183.2192 425.0112 0 458.0096-140.2112 458.0096-183.2192 0-171.4944-123.136-226.7392-260.4032-272.4864zM512 99.7888a137.5488 137.5488 0 0 1 137.3952 137.3952c0 102.9376-27.4688 177.664-78.1824 210.9952-34.6624 23.9104-82.9184 24.4992-119.2704-0.5888-49.8944-32.7424-77.3632-107.4944-77.3632-210.432A137.5744 137.5744 0 0 1 512 99.7888z m0 824.4224c-172.9536 0-366.4128-39.1936-366.4128-91.5968 0-103.0656 58.2912-139.1104 197.5808-185.5232 48.3584-15.9744 84.2496-50.048 105.9072-99.6864A198.3744 198.3744 0 0 0 512 557.824c21.8368 0 43.008-3.7376 62.9504-10.3936 21.632 49.6128 57.4976 83.6864 105.7792 99.6096 139.4176 46.464 197.7088 82.5344 197.7088 185.5744-0.0256 52.3264-193.4848 91.52-366.4384 91.5968z" p-id="2149"></path></svg>